<svg xmlns="http://www.w3.org/2000/svg" xmlns:xlink="http://www.w3.org/1999/xlink" version="1.1" x="0px" y="0px" viewBox="0 0 50 62.5" enable-background="new 0 0 50 50" xml:space="preserve"><path d="M25,1C11.745,1,1,11.745,1,25s10.745,24,24,24s24-10.745,24-24S38.255,1,25,1z M17.887,38.646  c0.097,0.099,0.097,0.257-0.001,0.354c-0.049,0.049-0.112,0.073-0.176,0.073s-0.128-0.024-0.177-0.073L3.767,25.177  c-0.028-0.028-0.031-0.067-0.042-0.103c-0.008-0.025-0.03-0.047-0.03-0.073s0.022-0.048,0.03-0.073  c0.012-0.036,0.014-0.075,0.042-0.103l13.766-13.823c0.098-0.099,0.256-0.098,0.354-0.001c0.098,0.098,0.098,0.256,0.001,0.354  L4.297,25.001L17.887,38.646z M46.232,25.178c0,0-0.001,0-0.002,0l-13.765,13.82c-0.049,0.049-0.112,0.073-0.177,0.073  c-0.063,0-0.128-0.024-0.177-0.073c-0.098-0.097-0.098-0.255,0-0.354l13.591-13.645L32.112,11.354c-0.098-0.098-0.098-0.256,0-0.354  c0.098-0.097,0.256-0.097,0.354,0.001L46.23,24.823c0.001,0,0.002,0,0.002,0c0.049,0.049,0.073,0.113,0.073,0.177  S46.281,25.129,46.232,25.178z"/><text x="0" y="65" fill="#000000" font-size="5px" font-weight="bold" font-family="'Helvetica Neue', Helvetica, Arial-Unicode, Arial, Sans-serif">Created by Alex Burte</text><text x="0" y="70" fill="#000000" font-size="5px" font-weight="bold" font-family="'Helvetica Neue', Helvetica, Arial-Unicode, Arial, Sans-serif">from the Noun Project</text></svg>